<?xml version="1.0" encoding="UTF-8"?> <svg xmlns="http://www.w3.org/2000/svg" width="121" height="20" viewBox="0 0 121 20" fill="none"> <path fill-rule="evenodd" clip-rule="evenodd" d="M69.9941 10.3853C70.2858 10.7381 70.4316 11.1654 70.4316 11.6673C70.4316 12.4745 70.1433 13.1273 69.5668 13.6258C68.9902 14.1244 68.1662 14.3736 67.0945 14.3736C66.5993 14.3736 66.1177 14.3075 65.6497 14.1752C65.1817 14.043 64.8104 13.9005 64.5357 13.7479C64.261 13.5953 64.0049 13.4156 63.7675 13.2087C63.5301 13.0018 63.3758 12.856 63.3046 12.7712C63.2334 12.6864 63.1842 12.6237 63.1571 12.583L62.2007 13.6411L62.394 13.8751C62.5025 14.0243 62.6958 14.2075 62.9739 14.4245C63.252 14.6416 63.5708 14.8535 63.9303 15.0604C64.2898 15.2673 64.751 15.447 65.314 15.5996C65.877 15.7522 66.4704 15.8285 67.0945 15.8285C68.6274 15.8285 69.8279 15.4436 70.6961 14.6738C71.5643 13.9039 71.9984 12.9018 71.9984 11.6673C71.9984 10.9551 71.8526 10.3463 71.5609 9.84103C71.2693 9.33571 70.8894 8.94401 70.4214 8.66591C69.9534 8.38781 69.4396 8.15212 68.88 7.95881C68.3204 7.76549 67.7592 7.58914 67.1962 7.42975C66.6332 7.27035 66.1177 7.0923 65.6497 6.8956C65.1817 6.6989 64.8019 6.4242 64.5102 6.07149C64.2186 5.71879 64.0727 5.29147 64.0727 4.78955C64.0727 4.0977 64.3559 3.5076 64.9223 3.01924C65.4886 2.53087 66.25 2.2867 67.2064 2.2867C67.6066 2.2867 67.9949 2.33926 68.3713 2.4444C68.7478 2.54953 69.0496 2.66823 69.2768 2.80049C69.5041 2.93276 69.7194 3.08198 69.9229 3.24816C70.1264 3.41434 70.2552 3.52964 70.3095 3.59408C70.3638 3.65852 70.4045 3.71108 70.4316 3.75178L71.4795 2.70384L71.3066 2.50035C71.1981 2.37148 71.0183 2.21717 70.7673 2.03743C70.5164 1.85768 70.2315 1.67794 69.9127 1.4982C69.5939 1.31845 69.1954 1.16245 68.7172 1.03018C68.2391 0.897919 67.7354 0.831787 67.2064 0.831787C65.8023 0.831787 64.6696 1.21671 63.8082 1.98656C62.9468 2.75641 62.5161 3.69073 62.5161 4.78955C62.5161 5.49496 62.6619 6.10201 62.9536 6.61073C63.2452 7.11944 63.6234 7.51284 64.088 7.79093C64.5526 8.06903 65.0664 8.30473 65.6294 8.49804C66.1924 8.69135 66.7553 8.8677 67.3183 9.02709C67.8813 9.18649 68.3951 9.36454 68.8597 9.56124C69.3243 9.75794 69.7024 10.0326 69.9941 10.3853ZM81.1613 10.6244C81.1613 11.652 80.795 12.5524 80.0625 13.3257C79.3367 14.0921 78.5228 14.4754 77.6207 14.4754C76.7593 14.4754 75.9877 14.1006 75.3061 13.3511C74.6244 12.6016 74.2835 11.6927 74.2835 10.6244C74.2835 9.55615 74.6244 8.64726 75.3061 7.89776C75.9877 7.14826 76.7593 6.77351 77.6207 6.77351C78.5228 6.77351 79.3384 7.15843 80.0676 7.92828C80.7967 8.69813 81.1613 9.59684 81.1613 10.6244ZM81.1613 14.0582V20H82.6162V5.62383H81.1613V7.19065L81.0189 6.99734C80.9171 6.87525 80.7662 6.72603 80.5661 6.54968C80.366 6.37333 80.1303 6.20206 79.859 6.03588C79.5877 5.8697 79.2536 5.72388 78.8568 5.59839C78.46 5.47291 78.048 5.41017 77.6207 5.41017C76.3455 5.41017 75.2281 5.92227 74.2683 6.94647C73.3085 7.97068 72.8286 9.19666 72.8286 10.6244C72.8286 12.0522 73.3085 13.2765 74.2683 14.2973C75.2281 15.3181 76.3455 15.8285 77.6207 15.8285C78.048 15.8285 78.4634 15.7675 78.867 15.6454C79.2706 15.5233 79.6012 15.3826 79.859 15.2232C80.1167 15.0638 80.3575 14.8823 80.5814 14.6789C80.8052 14.4754 80.951 14.3312 81.0189 14.2465C81.0867 14.1617 81.1342 14.0989 81.1613 14.0582ZM92.1962 14.2719V15.6251H93.6613V5.62383H92.1962V11.1484C92.1962 12.1184 91.9046 12.9153 91.3212 13.5393C90.7379 14.1634 90.0223 14.4754 89.1745 14.4754C88.3877 14.4754 87.723 14.1905 87.1803 13.6207C86.6377 13.051 86.3664 12.3286 86.3664 11.4536V5.62383H84.9115V11.4536C84.9115 12.7492 85.2964 13.8022 86.0663 14.6127C86.8361 15.4233 87.8044 15.8285 88.971 15.8285C89.3712 15.8285 89.7595 15.7743 90.1359 15.6658C90.5124 15.5572 90.8159 15.4334 91.0465 15.2944C91.2771 15.1553 91.4925 14.996 91.6926 14.8162C91.8927 14.6365 92.0199 14.511 92.0741 14.4398C92.1284 14.3685 92.1691 14.3126 92.1962 14.2719ZM102.102 9.26619L98.2458 9.89699C97.303 10.053 96.5806 10.387 96.0787 10.8991C95.5768 11.4112 95.3258 12.0844 95.3258 12.9187C95.3258 13.6784 95.6666 14.3533 96.3483 14.9434C97.03 15.5335 97.8693 15.8285 98.8664 15.8285C99.2666 15.8285 99.6549 15.7743 100.031 15.6658C100.408 15.5572 100.711 15.4334 100.942 15.2944C101.173 15.1553 101.388 14.996 101.588 14.8162C101.788 14.6365 101.917 14.511 101.975 14.4398C102.032 14.3685 102.075 14.3126 102.102 14.2719V15.6251H103.557V9.26619C103.557 8.17415 103.182 7.25849 102.432 6.51916C101.683 5.77983 100.738 5.41017 99.599 5.41017C99.1513 5.41017 98.7121 5.4763 98.2814 5.60857C97.8507 5.74083 97.5031 5.89175 97.2385 6.06132C96.974 6.23089 96.7214 6.4225 96.4806 6.63616C96.2398 6.84982 96.0838 6.99904 96.0126 7.08383C95.9413 7.16861 95.8854 7.23813 95.8447 7.2924L96.7807 8.22842L97.0961 7.87232C97.3064 7.62136 97.6438 7.37549 98.1084 7.1347C98.5731 6.89391 99.0699 6.77351 99.599 6.77351C100.331 6.77351 100.932 7.00412 101.4 7.46536C101.868 7.92659 102.102 8.52686 102.102 9.26619ZM101.191 13.5495C100.584 14.1668 99.8092 14.4754 98.8664 14.4754C98.2153 14.4754 97.7049 14.3278 97.3352 14.0328C96.9655 13.7377 96.7807 13.3664 96.7807 12.9187C96.7875 11.9759 97.4149 11.3858 98.6629 11.1484L102.102 10.5176V11.1484C102.102 12.1319 101.798 12.9323 101.191 13.5495ZM111.051 6.87525V5.41017H110.634C110.2 5.41017 109.788 5.46613 109.398 5.57805C109.008 5.68996 108.696 5.81544 108.462 5.95449C108.228 6.09354 108.009 6.25293 107.805 6.43268C107.602 6.61242 107.473 6.7379 107.419 6.80912C107.365 6.88034 107.324 6.9363 107.297 6.977V5.62383H105.842V15.6251H107.297V10.1005C107.297 9.14409 107.602 8.36747 108.212 7.77058C108.823 7.17369 109.559 6.87525 110.42 6.87525H111.051ZM112.705 11.1484L120.835 11.1688L120.936 10.4159C120.936 8.97113 120.478 7.77567 119.563 6.82947C118.647 5.88327 117.508 5.41017 116.144 5.41017C114.828 5.41017 113.684 5.91718 112.71 6.93121C111.737 7.94524 111.25 9.17461 111.25 10.6194C111.25 12.0641 111.742 13.2935 112.726 14.3075C113.709 15.3215 114.883 15.8285 116.246 15.8285C116.748 15.8285 117.238 15.7522 117.716 15.5996C118.194 15.447 118.584 15.2808 118.886 15.1011C119.188 14.9213 119.469 14.7145 119.731 14.4805C119.992 14.2465 120.161 14.0803 120.239 13.9819C120.317 13.8836 120.377 13.8073 120.417 13.753L119.481 12.817L119.125 13.2239C118.901 13.502 118.522 13.7801 117.986 14.0582C117.45 14.3363 116.87 14.4754 116.246 14.4754C115.317 14.4754 114.508 14.1464 113.819 13.4885C113.131 12.8305 112.76 12.0505 112.705 11.1484ZM116.144 6.77351C117.019 6.77351 117.765 7.06856 118.383 7.65867C119.007 8.24877 119.373 8.99487 119.481 9.89699H112.705C112.821 9.04913 113.204 8.3166 113.855 7.69936C114.506 7.08213 115.269 6.77351 116.144 6.77351ZM6.77601 7.29184L3.33713 1.03471H0L5.20918 10.4153V15.6245H8.34283V10.4153L13.552 1.03471H10.2149L6.77601 7.29184ZM14.5857 11.4531H21.9823L22.0841 10.3136C22.0841 8.85526 21.5991 7.63946 20.6292 6.66613C19.6592 5.69279 18.4451 5.20613 16.9868 5.20613C15.5285 5.20613 14.2771 5.7267 13.2325 6.76787C12.188 7.80903 11.6657 9.05875 11.6657 10.5171C11.6657 11.9754 12.1948 13.2251 13.2529 14.2662C14.311 15.3074 15.5896 15.828 17.0886 15.828C17.6176 15.828 18.1314 15.7669 18.6299 15.6448C19.1285 15.5228 19.5338 15.382 19.8458 15.2226C20.1578 15.0632 20.4528 14.8818 20.7309 14.6783C21.009 14.4748 21.1921 14.329 21.2803 14.2408L21.4635 14.0577L20.0086 12.1856L19.7135 12.501C19.5304 12.7113 19.2133 12.9199 18.7622 13.1267C18.3112 13.3336 17.8211 13.437 17.292 13.437C16.5595 13.437 15.9524 13.2454 15.4709 12.8622C14.9893 12.479 14.6942 12.0093 14.5857 11.4531ZM16.9868 7.60724C17.5837 7.60724 18.0856 7.78359 18.4926 8.1363C18.9063 8.489 19.1675 8.93666 19.276 9.47929H14.5857C14.7553 8.9231 15.0486 8.47205 15.4658 8.12612C15.8829 7.7802 16.3899 7.60724 16.9868 7.60724ZM26.0479 15.6245V1.03471H23.2297V15.6245H26.0479ZM30.7342 15.6245V1.03471H27.9159V15.6245H30.7342ZM34.7896 10.5221C34.7896 9.75907 35.0372 9.11641 35.5323 8.59413C36.0275 8.07186 36.6142 7.81072 37.2925 7.81072C37.9707 7.81072 38.5574 8.07186 39.0526 8.59413C39.5477 9.11641 39.7953 9.75907 39.7953 10.5221C39.7953 11.2852 39.5477 11.9262 39.0526 12.4451C38.5574 12.9639 37.9707 13.2234 37.2925 13.2234C36.6142 13.2234 36.0275 12.9639 35.5323 12.4451C35.0372 11.9262 34.7896 11.2852 34.7896 10.5221ZM42.7051 10.5171C42.7051 9.09944 42.1659 7.8616 41.0874 6.80348C40.0157 5.73857 38.7508 5.20613 37.2925 5.20613C35.8341 5.20613 34.5658 5.73688 33.4873 6.79839C32.4088 7.8599 31.8696 9.09944 31.8696 10.5171C31.8696 11.9347 32.4088 13.1742 33.4873 14.2357C34.5658 15.2972 35.8341 15.828 37.2925 15.828C38.7508 15.828 40.0174 15.2972 41.0925 14.2357C42.1676 13.1742 42.7051 11.9347 42.7051 10.5171ZM51.461 5.40961H49.3753L47.3914 11.565L45.4176 5.40961H42.4976L45.9771 15.6245H48.4393L50.4131 9.79469L52.397 15.6245H54.849L58.3286 5.40961H55.4188L53.4348 11.565L51.461 5.40961Z" fill="black"></path> </svg> 